<?xml version="1.0" standalone="no"?>
<!DOCTYPE svg PUBLIC "-//W3C//DTD SVG 20010904//EN"
 "http://www.w3.org/TR/2001/REC-SVG-20010904/DTD/svg10.dtd">
<svg version="1.0" xmlns="http://www.w3.org/2000/svg"
 width="25.000000pt" height="25.000000pt" viewBox="0 0 25.000000 25.000000"
 preserveAspectRatio="xMidYMid meet">

<g transform="translate(0.000000,25.000000) scale(0.100000,-0.100000)"
fill="#000000" stroke="none">
<path d="M63 230 c-37 -22 -63 -67 -63 -107 0 -60 64 -123 125 -123 62 0 125
63 125 125 0 63 -63 125 -127 125 -15 0 -42 -9 -60 -20z m141 -30 c24 -24 29
-37 29 -75 0 -60 -11 -70 -46 -40 -24 21 -26 27 -15 44 9 14 9 28 2 48 -8 24
-15 28 -49 28 -34 0 -41 -4 -49 -28 -7 -20 -7 -34 2 -48 11 -17 9 -23 -15 -44
-35 -29 -46 -20 -46 40 0 102 113 147 187 75z m-44 -15 c15 -19 6 -61 -16 -69
-42 -16 -82 35 -54 69 16 19 54 19 70 0z m17 -109 c26 -23 27 -26 11 -42 -23
-24 -103 -24 -126 0 -16 16 -15 19 11 42 36 31 68 31 104 0z"/>
</g>
</svg>
