<?xml version="1.0" encoding="UTF-8"?>
<svg version="1.1" xmlns="http://www.w3.org/2000/svg" width="20" height="20">
<path d="M0 0 C2.0625 0.4375 2.0625 0.4375 4 1 C4.33 2.65 4.66 4.3 5 6 C4.34 6 3.68 6 3 6 C4.22851628 8.52066803 4.22851628 8.52066803 6 11 C6.680625 11.165 7.36125 11.33 8.0625 11.5 C8.701875 11.665 9.34125 11.83 10 12 C11.25 14.5625 11.25 14.5625 12 17 C9.3125 17.8125 9.3125 17.8125 6 18 C2.07949901 14.99124343 -0.29949201 11.62916063 -2 7 C-1.59183673 1.59183673 -1.59183673 1.59183673 0 0 Z " fill="#000000" transform="translate(5,1)"/>
</svg>
